<svg xmlns="http://www.w3.org/2000/svg" xmlns:xlink="http://www.w3.org/1999/xlink" width="500" zoomAndPan="magnify" viewBox="0 0 375 374.999991" height="500" preserveAspectRatio="xMidYMid meet" version="1.0"><defs><g/></defs><rect x="-37.5" width="450" fill="#ffffff" y="-37.499999" height="449.999989" fill-opacity="1"/><rect x="-37.5" width="450" fill="#ffffff" y="-37.499999" height="449.999989" fill-opacity="1"/><g fill="#011446" fill-opacity="1"><g transform="translate(124.835263, 154.491698)"><g><path d="M 37.046875 1.078125 C 32.429688 1.078125 28.144531 0.238281 24.1875 -1.4375 C 20.226562 -3.113281 16.8125 -5.40625 13.9375 -8.3125 C 11.0625 -11.21875 8.8125 -14.648438 7.1875 -18.609375 C 5.570312 -22.566406 4.765625 -26.789062 4.765625 -31.28125 L 4.765625 -31.46875 C 4.765625 -35.957031 5.570312 -40.164062 7.1875 -44.09375 C 8.8125 -48.019531 11.0625 -51.46875 13.9375 -54.4375 C 16.8125 -57.40625 20.253906 -59.742188 24.265625 -61.453125 C 28.285156 -63.160156 32.722656 -64.015625 37.578125 -64.015625 C 40.515625 -64.015625 43.195312 -63.773438 45.625 -63.296875 C 48.050781 -62.816406 50.253906 -62.15625 52.234375 -61.3125 C 54.210938 -60.476562 56.039062 -59.460938 57.71875 -58.265625 C 59.394531 -57.066406 60.953125 -55.742188 62.390625 -54.296875 L 53.578125 -44.140625 C 51.117188 -46.359375 48.613281 -48.097656 46.0625 -49.359375 C 43.519531 -50.617188 40.660156 -51.25 37.484375 -51.25 C 34.847656 -51.25 32.40625 -50.738281 30.15625 -49.71875 C 27.914062 -48.695312 25.984375 -47.285156 24.359375 -45.484375 C 22.742188 -43.691406 21.484375 -41.609375 20.578125 -39.234375 C 19.679688 -36.867188 19.234375 -34.335938 19.234375 -31.640625 L 19.234375 -31.46875 C 19.234375 -28.769531 19.679688 -26.222656 20.578125 -23.828125 C 21.484375 -21.429688 22.726562 -19.332031 24.3125 -17.53125 C 25.90625 -15.726562 27.820312 -14.300781 30.0625 -13.25 C 32.3125 -12.207031 34.785156 -11.6875 37.484375 -11.6875 C 41.085938 -11.6875 44.128906 -12.34375 46.609375 -13.65625 C 49.097656 -14.976562 51.570312 -16.78125 54.03125 -19.0625 L 62.84375 -10.15625 C 61.226562 -8.414062 59.550781 -6.859375 57.8125 -5.484375 C 56.070312 -4.109375 54.164062 -2.925781 52.09375 -1.9375 C 50.03125 -0.945312 47.769531 -0.195312 45.3125 0.3125 C 42.851562 0.820312 40.097656 1.078125 37.046875 1.078125 Z M 37.046875 1.078125 "/></g></g></g><g fill="#011446" fill-opacity="1"><g transform="translate(191.177472, 154.491698)"><g><path d="M 7.546875 -62.9375 L 55.46875 -62.9375 L 55.46875 -50.34375 L 21.390625 -50.34375 L 21.390625 -36.953125 L 51.421875 -36.953125 L 51.421875 -24.359375 L 21.390625 -24.359375 L 21.390625 0 L 7.546875 0 Z M 7.546875 -62.9375 "/></g></g></g><g fill="#011446" fill-opacity="1"><g transform="translate(75.47578, 219.288671)"><g><path d="M 29.125 -63.390625 L 41.890625 -63.390625 L 68.875 0 L 54.390625 0 L 48.640625 -14.109375 L 22.03125 -14.109375 L 16.265625 0 L 2.15625 0 Z M 43.6875 -26.34375 L 35.328125 -46.75 L 26.96875 -26.34375 Z M 43.6875 -26.34375 "/></g></g></g><g fill="#011446" fill-opacity="1"><g transform="translate(146.498715, 219.288671)"><g><path d="M 22.109375 0.90625 C 16.898438 0.90625 12.867188 -0.679688 10.015625 -3.859375 C 7.171875 -7.035156 5.75 -11.414062 5.75 -17 L 5.75 -48.1875 L 19.421875 -48.1875 L 19.421875 -21.3125 C 19.421875 -18.070312 20.140625 -15.628906 21.578125 -13.984375 C 23.015625 -12.335938 25.050781 -11.515625 27.6875 -11.515625 C 30.320312 -11.515625 32.40625 -12.335938 33.9375 -13.984375 C 35.46875 -15.628906 36.234375 -18.070312 36.234375 -21.3125 L 36.234375 -48.1875 L 49.890625 -48.1875 L 49.890625 0 L 36.234375 0 L 36.234375 -6.828125 C 35.453125 -5.804688 34.597656 -4.832031 33.671875 -3.90625 C 32.742188 -2.976562 31.707031 -2.15625 30.5625 -1.4375 C 29.425781 -0.71875 28.164062 -0.148438 26.78125 0.265625 C 25.40625 0.691406 23.847656 0.90625 22.109375 0.90625 Z M 22.109375 0.90625 "/></g></g></g><g fill="#011446" fill-opacity="1"><g transform="translate(202.507941, 219.288671)"><g><path d="M 22.390625 0.8125 C 20.285156 0.8125 18.378906 0.582031 16.671875 0.125 C 14.960938 -0.320312 13.492188 -1.113281 12.265625 -2.25 C 11.035156 -3.382812 10.078125 -4.863281 9.390625 -6.6875 C 8.703125 -8.519531 8.359375 -10.847656 8.359375 -13.671875 L 8.359375 -36.5 L 2.609375 -36.5 L 2.609375 -48.1875 L 8.359375 -48.1875 L 8.359375 -60.5 L 22.03125 -60.5 L 22.03125 -48.1875 L 33.359375 -48.1875 L 33.359375 -36.5 L 22.03125 -36.5 L 22.03125 -15.90625 C 22.03125 -12.789062 23.5 -11.234375 26.4375 -11.234375 C 28.832031 -11.234375 31.078125 -11.804688 33.171875 -12.953125 L 33.171875 -1.984375 C 31.734375 -1.140625 30.144531 -0.460938 28.40625 0.046875 C 26.664062 0.554688 24.660156 0.8125 22.390625 0.8125 Z M 22.390625 0.8125 "/></g></g></g><g fill="#011446" fill-opacity="1"><g transform="translate(239.817454, 219.288671)"><g><path d="M 29.765625 1.078125 C 26.046875 1.078125 22.597656 0.4375 19.421875 -0.84375 C 16.242188 -2.132812 13.5 -3.90625 11.1875 -6.15625 C 8.882812 -8.40625 7.070312 -11.039062 5.75 -14.0625 C 4.4375 -17.09375 3.78125 -20.347656 3.78125 -23.828125 L 3.78125 -24 C 3.78125 -27.476562 4.4375 -30.726562 5.75 -33.75 C 7.070312 -36.78125 8.898438 -39.4375 11.234375 -41.71875 C 13.578125 -44 16.335938 -45.796875 19.515625 -47.109375 C 22.691406 -48.429688 26.164062 -49.09375 29.9375 -49.09375 C 33.65625 -49.09375 37.101562 -48.445312 40.28125 -47.15625 C 43.457031 -45.863281 46.195312 -44.09375 48.5 -41.84375 C 50.8125 -39.601562 52.625 -36.96875 53.9375 -33.9375 C 55.257812 -30.914062 55.921875 -27.664062 55.921875 -24.1875 L 55.921875 -24 C 55.921875 -20.53125 55.257812 -17.28125 53.9375 -14.25 C 52.625 -11.21875 50.796875 -8.5625 48.453125 -6.28125 C 46.117188 -4.007812 43.363281 -2.210938 40.1875 -0.890625 C 37.007812 0.421875 33.535156 1.078125 29.765625 1.078125 Z M 29.9375 -10.703125 C 31.914062 -10.703125 33.664062 -11.046875 35.1875 -11.734375 C 36.71875 -12.421875 38.023438 -13.363281 39.109375 -14.5625 C 40.191406 -15.757812 41.015625 -17.148438 41.578125 -18.734375 C 42.148438 -20.328125 42.4375 -22.023438 42.4375 -23.828125 L 42.4375 -24 C 42.4375 -25.800781 42.132812 -27.492188 41.53125 -29.078125 C 40.9375 -30.671875 40.066406 -32.082031 38.921875 -33.3125 C 37.785156 -34.539062 36.4375 -35.515625 34.875 -36.234375 C 33.320312 -36.953125 31.617188 -37.3125 29.765625 -37.3125 C 27.785156 -37.3125 26.03125 -36.96875 24.5 -36.28125 C 22.96875 -35.59375 21.660156 -34.644531 20.578125 -33.4375 C 19.503906 -32.238281 18.679688 -30.84375 18.109375 -29.25 C 17.546875 -27.664062 17.265625 -25.976562 17.265625 -24.1875 L 17.265625 -24 C 17.265625 -22.207031 17.5625 -20.515625 18.15625 -18.921875 C 18.757812 -17.335938 19.628906 -15.929688 20.765625 -14.703125 C 21.898438 -13.472656 23.234375 -12.5 24.765625 -11.78125 C 26.296875 -11.0625 28.019531 -10.703125 29.9375 -10.703125 Z M 29.9375 -10.703125 "/></g></g></g><g fill="#011446" fill-opacity="1"><g transform="translate(78.759544, 285.87952)"><g><path d="M 37.953125 1.109375 C 33.222656 1.109375 28.832031 0.25 24.78125 -1.46875 C 20.726562 -3.1875 17.226562 -5.535156 14.28125 -8.515625 C 11.332031 -11.492188 9.023438 -15.007812 7.359375 -19.0625 C 5.703125 -23.113281 4.875 -27.441406 4.875 -32.046875 L 4.875 -32.234375 C 4.875 -36.835938 5.703125 -41.148438 7.359375 -45.171875 C 9.023438 -49.203125 11.332031 -52.734375 14.28125 -55.765625 C 17.226562 -58.804688 20.757812 -61.203125 24.875 -62.953125 C 28.988281 -64.703125 33.53125 -65.578125 38.5 -65.578125 C 41.507812 -65.578125 44.253906 -65.332031 46.734375 -64.84375 C 49.222656 -64.351562 51.484375 -63.675781 53.515625 -62.8125 C 55.546875 -61.957031 57.421875 -60.914062 59.140625 -59.6875 C 60.859375 -58.457031 62.453125 -57.109375 63.921875 -55.640625 L 54.890625 -45.21875 C 52.378906 -47.5 49.816406 -49.28125 47.203125 -50.5625 C 44.597656 -51.851562 41.664062 -52.5 38.40625 -52.5 C 35.707031 -52.5 33.207031 -51.976562 30.90625 -50.9375 C 28.601562 -49.894531 26.617188 -48.453125 24.953125 -46.609375 C 23.296875 -44.765625 22.007812 -42.628906 21.09375 -40.203125 C 20.175781 -37.773438 19.71875 -35.179688 19.71875 -32.421875 L 19.71875 -32.234375 C 19.71875 -29.472656 20.175781 -26.863281 21.09375 -24.40625 C 22.007812 -21.945312 23.28125 -19.796875 24.90625 -17.953125 C 26.539062 -16.117188 28.507812 -14.660156 30.8125 -13.578125 C 33.113281 -12.503906 35.644531 -11.96875 38.40625 -11.96875 C 42.09375 -11.96875 45.207031 -12.644531 47.75 -14 C 50.300781 -15.351562 52.835938 -17.195312 55.359375 -19.53125 L 64.390625 -10.40625 C 62.722656 -8.625 61 -7.023438 59.21875 -5.609375 C 57.445312 -4.203125 55.5 -2.988281 53.375 -1.96875 C 51.257812 -0.957031 48.941406 -0.191406 46.421875 0.328125 C 43.898438 0.847656 41.078125 1.109375 37.953125 1.109375 Z M 37.953125 1.109375 "/></g></g></g><g fill="#011446" fill-opacity="1"><g transform="translate(146.729788, 285.87952)"><g><path d="M 20.265625 0.921875 C 17.929688 0.921875 15.734375 0.597656 13.671875 -0.046875 C 11.617188 -0.691406 9.820312 -1.65625 8.28125 -2.9375 C 6.75 -4.226562 5.535156 -5.8125 4.640625 -7.6875 C 3.753906 -9.5625 3.3125 -11.726562 3.3125 -14.1875 L 3.3125 -14.375 C 3.3125 -17.070312 3.800781 -19.398438 4.78125 -21.359375 C 5.769531 -23.328125 7.140625 -24.957031 8.890625 -26.25 C 10.640625 -27.539062 12.726562 -28.507812 15.15625 -29.15625 C 17.582031 -29.800781 20.269531 -30.125 23.21875 -30.125 C 25.726562 -30.125 27.921875 -29.9375 29.796875 -29.5625 C 31.671875 -29.195312 33.5 -28.707031 35.28125 -28.09375 L 35.28125 -28.921875 C 35.28125 -31.867188 34.390625 -34.109375 32.609375 -35.640625 C 30.828125 -37.179688 28.1875 -37.953125 24.6875 -37.953125 C 21.976562 -37.953125 19.597656 -37.71875 17.546875 -37.25 C 15.492188 -36.789062 13.328125 -36.132812 11.046875 -35.28125 L 7.546875 -45.96875 C 10.253906 -47.132812 13.082031 -48.082031 16.03125 -48.8125 C 18.976562 -49.550781 22.539062 -49.921875 26.71875 -49.921875 C 30.582031 -49.921875 33.878906 -49.441406 36.609375 -48.484375 C 39.347656 -47.535156 41.609375 -46.171875 43.390625 -44.390625 C 45.222656 -42.554688 46.566406 -40.300781 47.421875 -37.625 C 48.285156 -34.957031 48.71875 -31.960938 48.71875 -28.640625 L 48.71875 0 L 35.1875 0 L 35.1875 -5.34375 C 33.46875 -3.4375 31.410156 -1.914062 29.015625 -0.78125 C 26.617188 0.351562 23.703125 0.921875 20.265625 0.921875 Z M 24.5 -8.75 C 27.8125 -8.75 30.46875 -9.546875 32.46875 -11.140625 C 34.46875 -12.742188 35.46875 -14.832031 35.46875 -17.40625 L 35.46875 -19.890625 C 34.238281 -20.441406 32.867188 -20.882812 31.359375 -21.21875 C 29.859375 -21.5625 28.25 -21.734375 26.53125 -21.734375 C 23.519531 -21.734375 21.15625 -21.148438 19.4375 -19.984375 C 17.71875 -18.816406 16.859375 -17.128906 16.859375 -14.921875 L 16.859375 -14.734375 C 16.859375 -12.828125 17.5625 -11.351562 18.96875 -10.3125 C 20.382812 -9.269531 22.226562 -8.75 24.5 -8.75 Z M 24.5 -8.75 "/></g></g></g><g fill="#011446" fill-opacity="1"><g transform="translate(201.253335, 285.87952)"><g><path d="M 6.265625 -49.375 L 20.265625 -49.375 L 20.265625 -39.421875 C 21.671875 -42.796875 23.601562 -45.492188 26.0625 -47.515625 C 28.519531 -49.546875 31.835938 -50.472656 36.015625 -50.296875 L 36.015625 -35.640625 L 35.28125 -35.640625 C 30.613281 -35.640625 26.941406 -34.226562 24.265625 -31.40625 C 21.597656 -28.582031 20.265625 -24.191406 20.265625 -18.234375 L 20.265625 0 L 6.265625 0 Z M 6.265625 -49.375 "/></g></g></g><g fill="#011446" fill-opacity="1"><g transform="translate(239.751389, 285.87952)"><g><path d="M 29.65625 1.109375 C 25.96875 1.109375 22.539062 0.492188 19.375 -0.734375 C 16.21875 -1.960938 13.488281 -3.710938 11.1875 -5.984375 C 8.882812 -8.253906 7.085938 -10.941406 5.796875 -14.046875 C 4.515625 -17.148438 3.875 -20.601562 3.875 -24.40625 L 3.875 -24.59375 C 3.875 -28.09375 4.46875 -31.40625 5.65625 -34.53125 C 6.851562 -37.664062 8.523438 -40.398438 10.671875 -42.734375 C 12.828125 -45.066406 15.394531 -46.910156 18.375 -48.265625 C 21.351562 -49.617188 24.65625 -50.296875 28.28125 -50.296875 C 32.394531 -50.296875 35.953125 -49.554688 38.953125 -48.078125 C 41.960938 -46.609375 44.46875 -44.628906 46.46875 -42.140625 C 48.46875 -39.648438 49.941406 -36.789062 50.890625 -33.5625 C 51.835938 -30.34375 52.3125 -26.984375 52.3125 -23.484375 C 52.3125 -22.929688 52.296875 -22.347656 52.265625 -21.734375 C 52.234375 -21.117188 52.191406 -20.472656 52.140625 -19.796875 L 17.78125 -19.796875 C 18.457031 -16.609375 19.851562 -14.195312 21.96875 -12.5625 C 24.082031 -10.9375 26.707031 -10.125 29.84375 -10.125 C 32.175781 -10.125 34.265625 -10.523438 36.109375 -11.328125 C 37.953125 -12.128906 39.851562 -13.421875 41.8125 -15.203125 L 49.828125 -8.109375 C 47.492188 -5.222656 44.671875 -2.960938 41.359375 -1.328125 C 38.046875 0.296875 34.144531 1.109375 29.65625 1.109375 Z M 38.6875 -28.546875 C 38.257812 -31.679688 37.15625 -34.210938 35.375 -36.140625 C 33.59375 -38.078125 31.226562 -39.046875 28.28125 -39.046875 C 25.332031 -39.046875 22.953125 -38.09375 21.140625 -36.1875 C 19.328125 -34.289062 18.144531 -31.742188 17.59375 -28.546875 Z M 38.6875 -28.546875 "/></g></g></g></svg>